<?xml version="1.0" encoding="UTF-8"?>
<svg id="FarmWise" xmlns="http://www.w3.org/2000/svg" viewBox="0 0 1368 132.46">
  <defs>
    <style>
      .cls-1 {
        fill: none;
      }

      .cls-2 {
        letter-spacing: 0em;
      }

      .cls-3 {
        fill: #fff;
      }

      .cls-4 {
        fill: red;
      }

      .cls-5 {
        letter-spacing: -.04em;
      }

      .cls-6 {
        font-family: Cochin-Bold, Cochin;
        font-size: 30px;
        isolation: isolate;
      }
    </style>
  </defs>
  <rect id="BackgroundWhite" class="cls-3" x="2" y="-6475.24" width="1366" height="6607.7"/>
  <rect class="cls-1" x="173" y="30.76" width="1015" height="525"/>
  <g id="Heading_BR">
    <rect class="cls-1" x="233.5" y="36.16" width="696.2" height="43"/>
    <text class="cls-6" transform="translate(233.53 57.49)"><tspan class="cls-5" x="0" y="0">W</tspan><tspan class="cls-2" x="28.89" y="0">alkthrough of the user journey</tspan></text>
  </g>
  <path class="cls-4" d="M208.25,36.77c-.45-1.68-1.76-3-3.42-3.44-3.02-.81-15.12-.81-15.12-.81,0,0-12.11,0-15.12,.81-1.67,.45-2.98,1.77-3.42,3.44-.81,3.04-.81,9.38-.81,9.38,0,0,0,6.34,.81,9.38,.44,1.68,1.76,3,3.42,3.44,3.02,.81,15.12,.81,15.12,.81,0,0,12.11,0,15.12-.81,1.67-.45,2.98-1.77,3.42-3.44,.81-3.04,.81-9.38,.81-9.38,0,0,0-6.34-.81-9.38"/>
  <path class="cls-3" d="M185.75,51.91l10.12-5.76-10.12-5.76v11.51Z"/>
</svg>